<svg xmlns="http://www.w3.org/2000/svg" id="Layer_2" data-name="Layer 2" viewBox="0 0 1182.21 279.84"><defs><style>.cls-1{fill:#0d3151}.cls-3{fill:#fff}.cls-8{fill:#7ccbc1}</style></defs><g id="Layer_1-2" data-name="Layer 1"><path d="M316.34 184.67c-9.24 0-17.16-1.66-23.64-4.97-6.48-3.31-12.24-8.16-17.4-14.54l13.08-12.89c3.24 4.61 7.08 8.28 11.52 10.76 4.44 2.6 10.2 3.9 17.04 3.9 6.48 0 11.64-1.3 15.48-4.02 3.84-2.6 5.76-6.27 5.76-10.88 0-3.9-.96-6.98-3-9.46-2.04-2.36-4.68-4.37-7.92-6.03-3.24-1.54-6.96-3.07-10.92-4.26-3.96-1.3-7.92-2.72-11.88-4.26a46.814 46.814 0 0 1-10.92-6.03c-3.24-2.36-6-5.56-7.92-9.46-2.04-3.9-3-8.75-3-14.66 0-6.86 1.68-12.65 5.16-17.38 3.36-4.85 8.04-8.39 13.8-11 5.76-2.48 12.24-3.78 19.44-3.78 7.68 0 14.64 1.54 20.76 4.49 6.12 2.96 11.04 6.74 14.88 11.35l-13.08 12.89c-3.36-3.78-6.84-6.5-10.44-8.39-3.6-1.77-7.8-2.72-12.48-2.72-5.76 0-10.32 1.18-13.68 3.43-3.24 2.36-4.92 5.56-4.92 9.69 0 3.55.96 6.38 3 8.51s4.68 4.02 7.92 5.44c3.24 1.54 6.96 2.84 10.92 4.26 3.96 1.3 7.92 2.84 11.88 4.49 3.96 1.66 7.56 3.78 10.92 6.38 3.24 2.6 6 5.91 7.92 10.05 2.04 4.02 3 9.22 3 15.37 0 10.4-3.72 18.56-11.16 24.59-7.56 6.03-17.52 9.1-30.13 9.1ZM368.32 184.67v-79.21h18.48v79.21h-18.48Zm53.41 0V137.5c0-5.32-1.68-9.34-5.04-12.3-3.36-2.96-7.44-4.37-12.36-4.37-3.36 0-6.36.71-9 2.01-2.64 1.3-4.68 3.19-6.24 5.67-1.56 2.48-2.4 5.44-2.4 8.98l-7.2-4.02c0-6.03 1.32-11.23 4.08-15.72 2.64-4.37 6.36-7.8 10.92-10.29 4.56-2.48 9.72-3.66 15.48-3.66s10.8 1.18 15.48 3.66c4.56 2.37 8.16 5.79 10.92 10.29 2.64 4.37 4.08 9.69 4.08 15.84v51.19h-18.72v-.12Zm53.53 0V137.5c0-5.32-1.68-9.34-5.04-12.3-3.36-2.96-7.44-4.37-12.36-4.37-3.24 0-6.24.71-8.88 2.01-2.64 1.3-4.8 3.19-6.36 5.67-1.56 2.48-2.4 5.44-2.4 8.98l-10.44-4.02c.6-6.03 2.4-11.23 5.4-15.72 3-4.37 6.84-7.8 11.64-10.29 4.8-2.48 9.96-3.66 15.72-3.66s11.04 1.18 15.72 3.66c4.68 2.37 8.4 5.79 11.28 10.29 2.76 4.37 4.2 9.69 4.2 15.84v51.19h-18.48v-.12ZM540.32 184.67c-7.32 0-13.8-1.77-19.69-5.44-5.88-3.67-10.56-8.51-13.92-14.78-3.36-6.27-5.16-13.24-5.16-20.93s1.68-14.78 5.16-21.04c3.36-6.27 8.04-11.23 13.92-14.9 5.88-3.67 12.48-5.56 19.69-5.56 6.12 0 11.64 1.3 16.32 3.9 4.8 2.6 8.52 6.15 11.28 10.64s4.2 9.58 4.2 15.37v22.82c0 5.67-1.32 10.88-4.08 15.37-2.76 4.49-6.48 8.04-11.28 10.64-4.8 2.6-10.32 3.9-16.44 3.9Zm3-17.14c6.84 0 12.36-2.25 16.56-6.74 4.2-4.49 6.24-10.29 6.24-17.38 0-4.73-.96-8.87-2.88-12.53s-4.56-6.5-7.92-8.51c-3.36-2.01-7.44-3.07-12-3.07s-8.4 1.06-11.76 3.07a21.364 21.364 0 0 0-8.04 8.51c-1.92 3.67-2.88 7.8-2.88 12.53s.96 8.87 2.88 12.53 4.68 6.5 8.04 8.51c3.36 2.01 7.32 3.07 11.76 3.07Zm21.6 15.48v-21.28l3.24-19.27-3.24-19.15V103.8h18.48v79.21h-18.48ZM597.8 184.67v-79.21h18.48v79.21H597.8Zm18.36-44.1-6.36-3.19c0-10.05 2.28-18.09 6.84-24.35 4.56-6.27 11.4-9.34 20.52-9.34 4.08 0 7.68.71 10.92 2.13s6.24 3.78 9 6.98l-12.12 12.18c-1.44-1.54-3.12-2.6-4.92-3.31-1.8-.71-3.84-.95-6.24-.95-5.16 0-9.36 1.66-12.72 4.85-3.24 3.19-4.92 8.16-4.92 15.01ZM660.33 121.89v-16.55h57.01v16.55h-57.01Zm19.21 62.78V72.36h18.48v112.31h-18.48ZM787.57 184.67c-8.52 0-16.32-1.54-23.52-4.49-7.2-3.07-13.44-7.21-18.84-12.77-5.4-5.44-9.48-11.82-12.36-19.03-2.88-7.21-4.32-14.9-4.32-23.17s1.44-15.96 4.32-23.17c2.88-7.21 7.08-13.48 12.36-18.92 5.4-5.44 11.64-9.58 18.84-12.77 7.2-3.07 15-4.61 23.52-4.61 9.48 0 17.76 1.54 24.61 4.61 6.96 3.07 13.08 7.21 18.48 12.53l-13.08 12.89c-3.48-3.78-7.68-6.62-12.6-8.75s-10.8-3.19-17.4-3.19c-5.76 0-11.16.95-15.96 2.96-4.8 2.01-9 4.85-12.48 8.51-3.48 3.67-6.24 8.04-8.16 13.12s-2.88 10.64-2.88 16.67.96 11.59 2.88 16.67c1.92 5.08 4.56 9.46 8.16 13.12 3.48 3.66 7.68 6.5 12.48 8.51 4.8 2.01 10.08 2.96 15.96 2.96 7.2 0 13.2-1.06 18.24-3.19 4.92-2.13 9.24-5.08 12.6-8.87l13.08 12.89c-5.4 5.44-11.64 9.58-18.96 12.77-7.32 3.19-15.6 4.73-24.97 4.73ZM840.38 184.67v-79.21h18.48v79.21h-18.48Zm18.48-44.1-6.36-3.19c0-10.05 2.28-18.09 6.84-24.35 4.56-6.27 11.4-9.34 20.52-9.34 4.08 0 7.68.71 10.92 2.13s6.24 3.78 9 6.98l-12.12 12.18c-1.44-1.54-3.12-2.6-4.92-3.31-1.8-.71-3.84-.95-6.24-.95-5.16 0-9.36 1.66-12.72 4.85-3.24 3.19-4.92 8.16-4.92 15.01ZM937.25 184.67c-7.81 0-14.89-1.89-21.25-5.56-6.36-3.66-11.4-8.63-15.12-14.9-3.72-6.27-5.64-13.24-5.64-20.93s1.92-14.66 5.64-20.81c3.72-6.15 8.76-11.11 15.12-14.78s13.45-5.56 21.25-5.56 15.12 1.77 21.48 5.44c6.36 3.66 11.4 8.51 15.12 14.78 3.73 6.27 5.64 13.24 5.64 20.93s-1.91 14.66-5.64 20.93c-3.72 6.27-8.76 11.23-15.12 14.9-6.37 3.66-13.57 5.56-21.48 5.56Zm0-17.5c4.56 0 8.64-1.06 12.12-3.07 3.48-2.01 6.24-4.85 8.16-8.51s2.89-7.8 2.89-12.41-.96-8.75-3.01-12.18c-2.04-3.55-4.8-6.27-8.16-8.39-3.48-2.01-7.44-3.07-12.12-3.07s-8.52 1.06-12.01 3.07a21.306 21.306 0 0 0-8.16 8.39c-1.92 3.55-2.89 7.57-2.89 12.18s.96 8.75 2.89 12.41c1.92 3.67 4.68 6.5 8.16 8.51 3.73 2.01 7.68 3.07 12.13 3.07ZM1010.35 184.67l-32.41-79.21h19.2l21.85 57.58-5.64.12 21.24-57.81h10.68l21.25 57.81-5.65-.12 21.85-57.58h19.08l-32.41 79.21h-10.68l-21.85-54.86h6l-21.73 54.86h-10.79ZM1139.12 184.67c-7.32 0-13.8-1.77-19.68-5.44-5.88-3.66-10.56-8.51-13.92-14.78-3.36-6.27-5.16-13.24-5.16-20.93s1.68-14.78 5.16-21.04c3.36-6.27 8.04-11.23 13.92-14.9 5.88-3.67 12.48-5.56 19.68-5.56 6.13 0 11.64 1.3 16.32 3.9 4.81 2.6 8.52 6.15 11.29 10.64 2.75 4.49 4.2 9.58 4.2 15.37v22.82c0 5.67-1.33 10.88-4.08 15.37-2.76 4.49-6.48 8.04-11.29 10.64-4.8 2.6-10.32 3.9-16.44 3.9Zm3.01-17.14c4.56 0 8.52-1.06 12-3.07 3.36-2.01 6.13-4.85 7.92-8.51 1.92-3.66 2.89-7.8 2.89-12.53s-.96-8.87-2.89-12.53c-1.91-3.66-4.56-6.5-7.92-8.51-3.36-2.01-7.44-3.07-12-3.07s-8.4 1.06-11.76 3.07a21.387 21.387 0 0 0-8.05 8.51c-1.91 3.67-2.88 7.8-2.88 12.53s.96 8.87 2.88 12.53c1.92 3.67 4.69 6.5 8.05 8.51 3.36 2.01 7.32 3.07 11.76 3.07Zm40.08 15.48h-18.49v-21.28l3.25-19.27-3.25-19.15V64.2h18.49v118.82Z"></path><path d="M225.05 175.63V73.36c0-7.92-4.32-15.37-11.28-19.27l-89.9-51.08c-6.96-4.02-15.6-4.02-22.68 0L11.28 54.09C4.32 58.11 0 65.44 0 73.36v102.27c0 7.92 4.32 15.37 11.28 19.27l89.9 51.07c6.96 4.02 15.6 4.02 22.68 0l89.9-51.07a22.04 22.04 0 0 0 11.28-19.27Z" style="fill:#197bfd"></path><path d="M77.05 162.03c9.01 0 16.32-7.2 16.32-16.08s-7.31-16.08-16.32-16.08-16.32 7.2-16.32 16.08 7.31 16.08 16.32 16.08ZM148.72 162.5c9.01 0 16.32-7.2 16.32-16.08s-7.31-16.08-16.32-16.08-16.32 7.2-16.32 16.08 7.31 16.08 16.32 16.08ZM112.59 102.09c9.02 0 16.32-7.2 16.32-16.08s-7.31-16.08-16.32-16.08-16.32 7.2-16.32 16.08 7.31 16.08 16.32 16.08Z" class="cls-3"></path><path d="m107.78 191.82-55.33-31.57V97.47L30.73 84.58v88.08l77.06 43.86v-24.71ZM172.71 97.83v62.42l-55.45 31.68v24.71l77.06-43.98V84.94l-21.6 12.89ZM56.54 88.61l56.05-31.45 56.05 32.39 21.24-12.41-77.06-44.69L35.4 75.84l21.12 12.77Z" class="cls-3"></path><path d="M631.96 243.62c1.05-1.96 2.49-3.48 4.33-4.56 1.83-1.08 3.88-1.62 6.13-1.62s4.15.48 5.78 1.43c1.63.96 2.85 2.16 3.65 3.61v-4.63h4.26v25.35h-4.26v-4.72c-.83 1.48-2.07 2.71-3.72 3.68-1.65.97-3.57 1.46-5.76 1.46s-4.29-.55-6.11-1.67-3.25-2.67-4.3-4.67c-1.05-2-1.57-4.29-1.57-6.85s.52-4.86 1.57-6.82Zm18.73 1.87c-.77-1.42-1.81-2.5-3.12-3.26-1.31-.75-2.75-1.13-4.33-1.13s-3.01.37-4.3 1.11-2.33 1.82-3.1 3.24c-.77 1.42-1.16 3.08-1.16 5s.38 3.63 1.16 5.07c.77 1.43 1.8 2.53 3.1 3.28s2.73 1.13 4.3 1.13 3.01-.38 4.33-1.13c1.31-.76 2.35-1.85 3.12-3.28.77-1.43 1.16-3.11 1.16-5.02s-.39-3.58-1.16-5ZM960.79 243.62c1.05-1.96 2.5-3.48 4.37-4.56 1.87-1.08 4-1.62 6.41-1.62 3.11 0 5.68.76 7.7 2.27s3.35 3.61 4 6.29h-4.53c-.43-1.54-1.27-2.76-2.52-3.65-1.25-.89-2.8-1.34-4.65-1.34-2.41 0-4.35.83-5.83 2.47s-2.22 3.99-2.22 7.01.74 5.41 2.22 7.08c1.48 1.67 3.42 2.5 5.83 2.5 1.85 0 3.39-.43 4.63-1.29 1.23-.86 2.08-2.1 2.54-3.7h4.53c-.68 2.59-2.04 4.66-4.07 6.22-2.04 1.56-4.58 2.34-7.63 2.34-2.41 0-4.54-.54-6.41-1.62s-3.32-2.61-4.37-4.58c-1.05-1.97-1.57-4.29-1.57-6.94s.52-4.91 1.57-6.87ZM993.47 262.01c-1.93-1.08-3.44-2.61-4.53-4.6-1.09-1.99-1.64-4.29-1.64-6.92s.56-4.88 1.69-6.87c1.12-1.99 2.66-3.52 4.6-4.58 1.94-1.06 4.12-1.6 6.52-1.6s4.58.53 6.52 1.6c1.94 1.06 3.48 2.58 4.6 4.56 1.12 1.97 1.69 4.27 1.69 6.89s-.58 4.93-1.73 6.92c-1.16 1.99-2.72 3.52-4.7 4.6s-4.16 1.62-6.57 1.62-4.53-.54-6.45-1.62Zm10.71-3.15c1.33-.71 2.4-1.77 3.21-3.19.82-1.42 1.23-3.15 1.23-5.18s-.4-3.76-1.2-5.18c-.8-1.42-1.85-2.47-3.14-3.17-1.3-.69-2.7-1.04-4.21-1.04s-2.95.35-4.23 1.04c-1.28.69-2.31 1.75-3.08 3.17s-1.16 3.15-1.16 5.18.38 3.81 1.13 5.23c.75 1.42 1.76 2.47 3.03 3.17 1.26.69 2.65 1.04 4.16 1.04s2.93-.35 4.26-1.06ZM1054.23 238.62c1.54.82 2.76 2.04 3.65 3.68.89 1.63 1.34 3.62 1.34 5.97v14.94h-4.16v-14.34c0-2.53-.62-4.46-1.87-5.8-1.25-1.34-2.94-2.01-5.06-2.01s-3.93.7-5.23 2.1c-1.29 1.4-1.94 3.43-1.94 6.08v13.97h-4.16v-14.34c0-2.53-.62-4.46-1.87-5.8-1.25-1.34-2.94-2.01-5.06-2.01s-3.93.7-5.23 2.1c-1.3 1.4-1.94 3.43-1.94 6.08v13.97h-4.21v-25.35h4.21v3.65a8.282 8.282 0 0 1 3.35-3.05c1.4-.71 2.95-1.06 4.65-1.06 2.13 0 4.01.48 5.64 1.43 1.63.96 2.85 2.36 3.65 4.21.71-1.79 1.88-3.18 3.52-4.16 1.63-.99 3.45-1.48 5.46-1.48s3.73.41 5.27 1.23ZM1074.05 238.9c1.65-.97 3.57-1.46 5.76-1.46s4.29.54 6.13 1.62c1.83 1.08 3.28 2.6 4.33 4.56 1.05 1.96 1.57 4.23 1.57 6.82s-.52 4.84-1.57 6.85c-1.05 2-2.49 3.56-4.33 4.67-1.83 1.11-3.88 1.67-6.13 1.67s-4.06-.49-5.71-1.46c-1.65-.97-2.91-2.18-3.77-3.63v16.7h-4.21v-37.37h4.21v4.67c.83-1.45 2.07-2.66 3.72-3.63Zm12.32 6.55c-.77-1.42-1.81-2.5-3.12-3.24-1.31-.74-2.75-1.11-4.33-1.11s-2.97.38-4.28 1.13c-1.31.76-2.36 1.85-3.15 3.28s-1.18 3.09-1.18 4.97.39 3.58 1.18 5.02c.79 1.43 1.83 2.53 3.15 3.28 1.31.76 2.74 1.13 4.28 1.13s3.01-.38 4.33-1.13c1.31-.76 2.35-1.85 3.12-3.28.77-1.43 1.16-3.12 1.16-5.07s-.39-3.58-1.16-5ZM1097.38 243.62c1.05-1.96 2.49-3.48 4.33-4.56 1.83-1.08 3.88-1.62 6.13-1.62s4.15.48 5.78 1.43c1.63.96 2.85 2.16 3.65 3.61v-4.63h4.26v25.35h-4.26v-4.72c-.83 1.48-2.07 2.71-3.72 3.68-1.65.97-3.57 1.46-5.76 1.46s-4.29-.55-6.11-1.67-3.25-2.67-4.3-4.67c-1.05-2-1.57-4.29-1.57-6.85s.52-4.86 1.57-6.82Zm18.74 1.87c-.77-1.42-1.81-2.5-3.12-3.26-1.31-.75-2.75-1.13-4.33-1.13s-3.01.37-4.3 1.11-2.33 1.82-3.1 3.24c-.77 1.42-1.16 3.08-1.16 5s.38 3.63 1.16 5.07c.77 1.43 1.8 2.53 3.1 3.28s2.73 1.13 4.3 1.13 3.01-.38 4.33-1.13c1.31-.76 2.35-1.85 3.12-3.28.77-1.43 1.16-3.11 1.16-5.02s-.39-3.58-1.16-5ZM1148.49 240.2c1.91 1.87 2.87 4.56 2.87 8.07v14.94h-4.16v-14.34c0-2.53-.63-4.46-1.9-5.8-1.26-1.34-2.99-2.01-5.18-2.01s-3.99.69-5.3 2.08-1.97 3.41-1.97 6.06v14.02h-4.21v-25.35h4.21v3.61c.83-1.29 1.97-2.3 3.4-3.01s3.01-1.06 4.74-1.06c3.08 0 5.58.93 7.49 2.8ZM1180.09 237.86l-15.26 37.28h-4.35l5-12.21-10.22-25.07h4.67l7.96 20.54 7.86-20.54h4.35Z" class="cls-1"></path><path d="M692.92 244.55a31.893 31.893 0 0 1-14.21-10.31h-6.75c0 .15-.01.3-.01.45 0 17.57 14.24 31.8 31.8 31.8.15 0 .3 0 .45-.01v-6.26c-5.23-3.89-9.23-9.35-11.29-15.68" style="fill:#015c9a"></path><path d="M704.2 246.44v-12.19h-25.49c5.82 7.43 14.87 12.21 25.04 12.21.15 0 .3 0 .45-.01" style="fill:#00bcce"></path><path d="M723.61 214.18h-6.79a6.78 6.78 0 1 0 0 13.56c3.74 0 6.79-3.04 6.79-6.78v-6.78Z" class="cls-8"></path><path d="M704.2 260.24v-26h-12.84c0 .15-.01.3-.01.45 0 10.46 5.05 19.75 12.86 25.54" style="fill:#ff3a00"></path><path d="M704.2 234.24v-20.05h-32.25c0 .15-.01.3-.01.45 0 7.4 2.53 14.2 6.77 19.6h25.49Z" class="cls-8"></path><path d="M704.2 234.24v26a31.676 31.676 0 0 0 18.95 6.26c.15 0 .3 0 .45-.01v-32.25h-19.4Z" style="fill:#ff5e00"></path><path d="M941.08 228.8h-1.88v-.62h4.51v.62h-1.88v4.93h-.75v-4.93zM944.2 228.18h1.02l1.78 4.67 1.79-4.67h1.02v5.55h-.71v-4.62h-.01l-1.77 4.62h-.64l-1.76-4.62h-.01v4.62h-.71v-5.55zM771.92 214.18v31.3l-20.41-31.3h-12.83v51.75h12.83V234.7l20.41 31.23h12.83v-51.75h-12.83zM880.25 228.18l-7.04 22.67-7.39-22.67h-11.63l-7.43 22.81-7.08-22.81h-12.51l13.71 37.75h11.52l7.61-21.49 7.61 21.49h11.43l13.7-37.75h-12.5z" class="cls-1"></path><path d="M815.45 228.18v3.48c-2.95-2.71-6.84-4.27-11.3-4.29-10.11-.05-17.53 8.25-17.55 19.59-.02 11.36 7.42 19.76 17.45 19.74 4.5-.01 8.42-1.59 11.4-4.33v3.56h12.69v-37.75h-12.69Zm-8.02 27.39c-4.79 0-8.34-3.63-8.33-8.57 0-4.92 3.55-8.52 8.38-8.5 4.88.02 8.31 3.55 8.3 8.55 0 4.99-3.46 8.51-8.34 8.52M919.7 228.18l-9.13 22.29-8.63-22.29h-12.92l15.49 37.1-5.96 14.56h12.4l21.68-51.66H919.7z" class="cls-1"></path></g></svg>