<svg xmlns="http://www.w3.org/2000/svg" width="144" height="28" viewBox="0 0 144 28" fill="none"><g clip-path="url(#clip0_4945_859)"><path d="M22.0929 0H0.255859V2.24173C0.255859 7.7992 4.77896 12.3223 10.3364 12.3223H22.0965C25.4951 12.3223 28.2559 9.55799 28.2559 6.16296C28.2559 2.76792 25.4915 0 22.0929 0Z" fill="url(#paint0_linear_4945_859)"></path><path d="M18.1753 15.6774H6.41521C3.02018 15.6774 0.255859 18.4418 0.255859 21.8368C0.255859 25.2318 3.02018 27.9961 6.41521 27.9961H28.2523V25.7544C28.2523 20.1969 23.7291 15.6738 18.1717 15.6738L18.1753 15.6774Z" fill="url(#paint1_linear_4945_859)"></path><path d="M26.4421 1.80924C25.2744 0.641524 23.721 0 22.0704 0C20.4197 0 18.8664 0.641524 17.6986 1.80924L2.0642 17.4437C-0.346921 19.8548 -0.346921 23.776 2.0642 26.1872C3.23192 27.3549 4.78527 27.9964 6.43593 27.9964C8.0866 27.9964 9.63995 27.3549 10.8077 26.1872L26.4421 10.5527C28.8532 8.14159 28.8532 4.22036 26.4421 1.80924Z" fill="url(#paint2_linear_4945_859)"></path><path d="M34.584 22.3233V18.0597L43.5869 10.0154V9.68744H34.7354V5.42383H50.7518V9.68744L41.3452 17.7317V18.0597H50.9032V22.3233H34.584Z" fill="#262A33"></path><path d="M58.7484 22.3233V16.9496L51.1582 5.42383H57.0364L59.5845 9.43516L61.0225 11.8066H61.3505L62.7885 9.43516L65.3366 5.42383H71.2401L63.4985 16.9749V22.3233H58.7556H58.7484Z" fill="#262A33"></path><path d="M71.6127 22.3233V5.42383H81.4734C85.9388 5.42383 88.2815 7.29073 88.2815 10.5957C88.2815 13.2699 86.9444 14.8593 83.7151 15.2629V15.5152C85.4559 15.9693 86.0109 16.8019 86.6416 18.0885L88.7356 22.3269H83.261L81.2427 18.1894C80.6373 16.928 80.1327 16.5748 78.291 16.5748H76.3484V22.3269H71.6055L71.6127 22.3233ZM76.352 13.0428H81.4229C82.8105 13.0428 83.3151 12.7905 83.3151 11.3525C83.3151 10.0154 82.8105 9.68744 81.4229 9.68744H76.352V13.0428Z" fill="#262A33"></path><path d="M89.2441 13.8721C89.2441 8.59934 92.7257 5.17188 98.6003 5.17188C104.475 5.17188 108.057 8.60295 108.057 13.8721C108.057 19.1412 104.626 22.5723 98.6003 22.5723C92.5743 22.5723 89.2441 19.1412 89.2441 13.8721ZM103.012 13.8721C103.012 10.5167 102.028 9.7094 98.5967 9.7094C95.1656 9.7094 94.2826 10.5167 94.2826 13.8721C94.2826 17.2275 95.1656 18.0348 98.5967 18.0348C102.028 18.0348 103.012 17.2275 103.012 13.8721Z" fill="#262A33"></path><path d="M109.217 15.2341V5.42383H113.96V14.8557C113.96 17.2524 114.641 17.984 117.845 17.984C121.049 17.984 121.73 17.2524 121.73 14.8557V5.42383H126.473V15.2341C126.473 19.7248 123.748 22.572 117.849 22.572C111.949 22.572 109.224 19.7212 109.224 15.2341H109.217Z" fill="#262A33"></path><path d="M127.756 16.4451V16.2937H132.499V16.8235C132.499 17.9588 132.903 18.2615 136.082 18.2615C138.958 18.2615 139.26 18.0345 139.26 17.2776C139.26 16.6722 138.932 16.4199 137.545 16.2433L132.247 15.5369C129.093 15.108 127.504 13.4177 127.504 10.693C127.504 7.96833 129.598 5.16797 135.7 5.16797C141.073 5.16797 143.643 7.51422 143.643 11.2985V11.4499H138.9V11.0714C138.9 9.86046 138.37 9.45681 135.191 9.45681C132.769 9.45681 132.24 9.78478 132.24 10.5164C132.24 11.0462 132.542 11.2985 133.451 11.4246L138.749 12.2067C142.886 12.8122 143.996 14.9314 143.996 17.101C143.996 20.0023 141.776 22.5756 136.078 22.5756C130.906 22.5756 127.756 20.7339 127.756 16.4487V16.4451Z" fill="#262A33"></path></g><defs><linearGradient id="paint0_linear_4945_859" x1="5.85658" y1="-3.83112" x2="17.6995" y2="8.5957" gradientUnits="userSpaceOnUse"><stop stop-color="#0051FF"></stop><stop offset="0.16" stop-color="#004EFA"></stop><stop offset="0.33" stop-color="#0047EE"></stop><stop offset="0.5" stop-color="#003BD9"></stop><stop offset="0.67" stop-color="#002BBC"></stop><stop offset="0.85" stop-color="#001697"></stop><stop offset="1" stop-color="#000070"></stop></linearGradient><linearGradient id="paint1_linear_4945_859" x1="23.6967" y1="32.4291" x2="9.70212" y2="18.4345" gradientUnits="userSpaceOnUse"><stop stop-color="#0051FF"></stop><stop offset="0.16" stop-color="#004EFA"></stop><stop offset="0.33" stop-color="#0047EE"></stop><stop offset="0.5" stop-color="#003BD9"></stop><stop offset="0.67" stop-color="#002BBC"></stop><stop offset="0.85" stop-color="#001697"></stop><stop offset="1" stop-color="#000070"></stop></linearGradient><linearGradient id="paint2_linear_4945_859" x1="29.538" y1="-0.609087" x2="2.31288" y2="25.4123" gradientUnits="userSpaceOnUse"><stop stop-color="#0000FF"></stop><stop offset="0.11" stop-color="#0013FF"></stop><stop offset="0.32" stop-color="#0045FF"></stop><stop offset="0.63" stop-color="#0095FF"></stop><stop offset="1" stop-color="#00FFFF"></stop></linearGradient><clipPath id="clip0_4945_859"><rect width="143.745" height="28" fill="white" transform="translate(0.255859)"></rect></clipPath></defs></svg>